<svg xmlns="http://www.w3.org/2000/svg" data-name="Layer 1" viewBox="0 0 100 100" x="0px" y="0px"><title>Artboard 12</title><path d="M17.82,50.74l-2.18,2.18a1,1,0,0,0,.08,1.49l11,8.78L26,64a4.89,4.89,0,0,0-.48,6l-1.4,1.4a1,1,0,1,0,1.41,1.41l1.4-1.4a4.89,4.89,0,0,0,6-.48l.79-.72,8.78,11a1,1,0,0,0,.73.37h.06a1,1,0,0,0,.71-.29L46.12,79a1,1,0,0,0,.25-1L42,62.6l8.6-7.86,16.7,20.86A1,1,0,0,0,68,76h.06a1,1,0,0,0,.71-.29l4-4a1,1,0,0,0,.25-1L64.8,41.74l9.69-8.86A7.43,7.43,0,1,0,64,22.37L55.2,32,26.05,23.71a1,1,0,0,0-1,.25l-4,4a1,1,0,0,0,.08,1.49l21,16.82-7.87,8.61L18.8,50.49A1,1,0,0,0,17.82,50.74ZM44.29,78l-1,1L35.16,68.83l5.17-4.72Zm26.66-7.38-2.8,2.8L52.05,53.38,63.15,43.24ZM65.47,23.72a5.43,5.43,0,1,1,7.67,7.68l-41.6,38a2.89,2.89,0,0,1-3.17.49l8.21-8.21a1,1,0,0,0-1.41-1.41L27,68.5a2.89,2.89,0,0,1,.49-3.17Zm-42.2,4.87,2.8-2.8,27.62,7.85L43.5,44.8Zm9.5,27.95L28,61.71,17.85,53.54l1-1Z"></path><path d="M67.12,27a2.56,2.56,0,0,1,2.67,2.56,1,1,0,0,0,2,0A4.56,4.56,0,0,0,67,25a1,1,0,0,0-1,1A1,1,0,0,0,67.12,27Z"></path></svg>