<svg fill="#FFFFFF" xmlns="http://www.w3.org/2000/svg" data-name="Layer 1" viewBox="0 0 100 100" x="0px" y="0px"><title>Artboard 82</title><path d="M5.1,15.54A11.08,11.08,0,0,0,2,23.23V76.78a11.08,11.08,0,0,0,3.1,7.69h0a11.08,11.08,0,0,0,8,3.39H86.92A11.08,11.08,0,0,0,98,76.78V23.23A11.09,11.09,0,0,0,86.91,12.14H13.07A11.06,11.06,0,0,0,5.1,15.54ZM16.92,27.42a3.49,3.49,0,0,1,4.86-.26L50,51.89h0L78.21,27.16A3.49,3.49,0,0,1,83,32.23L66.35,49.17,83.14,67.92a3.49,3.49,0,0,1-5.07,4.79L60.37,55.26l-4.79,4.87A8.1,8.1,0,0,1,50,62.35h0a8.1,8.1,0,0,1-5.58-2.22l-4.79-4.87L21.93,72.7a3.49,3.49,0,0,1-5.07-4.79L33.65,49.17,17,32.23A3.49,3.49,0,0,1,16.92,27.42Z"></path></svg>