<svg xmlns="http://www.w3.org/2000/svg" xmlns:xlink="http://www.w3.org/1999/xlink" version="1.1" x="0px" y="0px" viewBox="0 0 100 100" style="enable-background:new 0 0 100 100;" xml:space="preserve"><style type="text/css">
	.st0{fill:none;stroke:#000000;stroke-width:2;stroke-linecap:round;stroke-linejoin:round;stroke-miterlimit:10;}
	.st1{stroke:#000000;stroke-linecap:round;stroke-linejoin:round;stroke-miterlimit:10;}
	.st2{fill:none;stroke:#000000;stroke-width:2;stroke-miterlimit:10;}
</style><path d="M59.2,51.2c0.1,0.1,0.2,0.1,0.4,0.1c1.2,0.4,2.4,0.7,3.6,1c0.4,0.1,0.9,0.3,1.3,0.5c0.2,0.1,0.3,0.2,0.4,0.3  c0,0,0,0.1,0,0.1c-0.4,0.7-0.8,1.5-1.2,2.2c-0.2,0.4-0.4,0.8-0.6,1.2c0,0,0,0.1-0.1,0c-0.1,0-0.2,0-0.3,0c-0.4-0.1-0.8-0.1-1.2-0.2  c-0.2,0-0.4,0.1-0.6,0.3c-0.1,0.2-0.2,0.3-0.3,0.5c-0.1,0.2-0.1,0.4,0.1,0.5c0.1,0.1,0.2,0.1,0.3,0.2c1.1,0.8,2.2,1.5,3.4,2.3  c0.1,0.1,0.2,0.1,0.3,0.1c0.1,0,0.3,0.1,0.4,0c0.2-0.2,0.4-0.4,0.4-0.7c0-0.3-0.1-0.5-0.2-0.8c-0.2-0.3-0.4-0.6-0.6-0.9  c0-0.1,0-0.1,0-0.1c0.7-1.1,1.5-2.1,2.2-3.2c0,0,0,0,0.1-0.1c0.1,0.1,0.2,0.2,0.4,0.3c0.3,0.3,0.6,0.5,0.9,0.8  c0.7,0.9,1.5,1.8,2.2,2.8c0.2,0.2,0.4,0.5,0.5,0.7c0.2,0.3,0.5,0.3,0.7,0.1c0.1-0.1,0.1-0.1,0.2-0.2c0.3-0.3,0.5-0.6,0.4-1  c0-0.3-0.1-0.5-0.2-0.8c-0.7-1.5-1.4-2.9-2.1-4.4c-0.2-0.5-0.5-1-0.7-1.5c-0.1-0.3-0.1-0.5,0-0.8c0,0,0,0,0,0c0.5-0.8,1-1.6,1.4-2.3  c0.2-0.4,0.4-0.8,0.5-1.2c0.1-0.3,0.1-0.6,0.1-1c0-0.3-0.2-0.6-0.5-0.6c-0.2-0.1-0.4,0-0.6,0.1c-0.4,0.2-0.8,0.5-1.1,1  c-0.3,0.5-0.6,0.9-0.9,1.4c-0.3,0.4-0.5,0.9-0.8,1.4c-0.1,0.2-0.3,0.4-0.6,0.4c-0.1,0-0.3,0-0.4,0c-2-0.1-4-0.2-5.9-0.3  c-0.2,0-0.4,0-0.6,0c-0.2,0-0.4,0.1-0.6,0.3c-0.2,0.3-0.3,0.6-0.4,1C58.9,51,59,51.1,59.2,51.2z"></path><path d="M63,68.9c0.1,0.5,0.5,0.8,1,0.8c0.1,0,0.1,0,0.2,0L75,67.2c0.5-0.1,0.9-0.7,0.8-1.2c-0.1-0.5-0.7-0.9-1.2-0.8l-10.9,2.4  C63.2,67.8,62.9,68.4,63,68.9z"></path><path d="M64.8,72.5c-0.5,0.1-0.9,0.7-0.8,1.2c0.1,0.5,0.5,0.8,1,0.8c0.1,0,0.1,0,0.2,0l10.9-2.4c0.5-0.1,0.9-0.7,0.8-1.2  c-0.1-0.5-0.7-0.9-1.2-0.8L64.8,72.5z"></path><path d="M42.2,36.2c0-0.3,0.2-0.5,0.5-0.6c0,0,0,0,0,0c0.8-0.4,1.7-0.7,2.5-1.1c0.4-0.2,0.8-0.4,1.1-0.7c0.2-0.2,0.5-0.4,0.7-0.7  c0.2-0.3,0.2-0.6,0-0.8c-0.1-0.2-0.3-0.3-0.5-0.3c-0.5-0.1-1,0-1.5,0.1c-0.5,0.2-1.1,0.4-1.6,0.6c-0.5,0.2-0.9,0.4-1.4,0.7  c-0.2,0.1-0.5,0.1-0.7,0c-0.1-0.1-0.2-0.1-0.3-0.2c-1.6-1.2-3.1-2.4-4.7-3.6c-0.2-0.1-0.3-0.2-0.5-0.3c-0.2-0.1-0.4-0.2-0.6-0.1  c-0.3,0.1-0.6,0.3-0.9,0.6c-0.2,0.2-0.2,0.3-0.1,0.6c0.1,0.1,0.1,0.2,0.2,0.3c0.8,1,1.6,1.9,2.3,2.9c0.3,0.4,0.6,0.7,0.8,1.2  c0.1,0.2,0.1,0.4,0.2,0.5c0,0-0.1,0-0.1,0c-0.7,0.4-1.5,0.7-2.2,1.1c-0.4,0.2-0.8,0.4-1.2,0.6c0,0-0.1,0-0.1,0  c-0.1-0.1-0.1-0.1-0.2-0.2c-0.3-0.3-0.6-0.5-0.9-0.8c-0.2-0.2-0.4-0.2-0.6-0.1c-0.2,0.1-0.3,0.2-0.5,0.3c-0.2,0.1-0.3,0.2-0.2,0.5  c0,0.1,0.1,0.2,0.1,0.3c0.5,1.3,1,2.5,1.5,3.8c0,0.1,0.1,0.2,0.2,0.3c0.1,0.1,0.2,0.2,0.4,0.2c0.3,0,0.5-0.1,0.7-0.3  c0.2-0.2,0.3-0.5,0.3-0.8c0-0.4,0-0.7,0.1-1.1c0-0.1,0-0.1,0.1-0.1c1.2-0.5,2.4-0.9,3.6-1.4c0,0,0.1,0,0.1,0c0,0.2,0.1,0.3,0.1,0.5  c0.1,0.4,0.2,0.8,0.2,1.2c0.1,1.2,0.1,2.4,0.2,3.5c0,0.3,0,0.6,0.1,0.9c0,0.3,0.2,0.5,0.6,0.5c0.1,0,0.2,0,0.2,0  c0.4-0.1,0.7-0.2,0.9-0.6c0.1-0.2,0.2-0.5,0.3-0.8c0.3-1.6,0.5-3.2,0.8-4.8C42,37.4,42.1,36.8,42.2,36.2z"></path><path d="M10.3,59.6l31.7,13.1c0.1,0.1,0.3,0.1,0.4,0.1c0.4,0,0.8-0.2,0.9-0.6l5.5-13.3L55.3,88c0.1,0.3,0.2,0.5,0.4,0.6  c0.2,0.1,0.3,0.2,0.5,0.2c0.1,0,0.1,0,0.2,0l33.5-7.4c0.5-0.1,0.9-0.7,0.8-1.2L80.4,33c-0.1-0.3-0.2-0.5-0.4-0.6  c-0.2-0.1-0.5-0.2-0.8-0.1L57.9,37l3.9-9.4c0.2-0.5,0-1.1-0.5-1.3L29.5,13.1c-0.2-0.1-0.5-0.1-0.8,0c-0.2,0.1-0.4,0.3-0.5,0.5  L9.8,58.3c-0.1,0.2-0.1,0.5,0,0.8S10.1,59.5,10.3,59.6z M88.6,79.6l-31.6,7l-10-45.1l31.6-7L88.6,79.6z M29.7,15.4l29.9,12.4  l-4.1,9.8l-9.9,2.2c-0.5,0.1-0.9,0.7-0.8,1.2l3.2,14.6c0,0.1-0.1,0.1-0.1,0.2l-6.1,14.8L12,58.1L29.7,15.4z"></path><path d="M38.6,50.7l-10.3-4.3c-0.5-0.2-1.1,0-1.3,0.5s0,1.1,0.5,1.3l10.3,4.3c0.1,0.1,0.3,0.1,0.4,0.1c0.4,0,0.8-0.2,0.9-0.6  C39.3,51.5,39.1,50.9,38.6,50.7z"></path><path d="M36.7,55.2L26.4,51c-0.5-0.2-1.1,0-1.3,0.5c-0.2,0.5,0,1.1,0.5,1.3l10.3,4.3c0.1,0.1,0.3,0.1,0.4,0.1c0.4,0,0.8-0.2,0.9-0.6  C37.5,56,37.2,55.5,36.7,55.2z"></path></svg>