<svg xmlns="http://www.w3.org/2000/svg" xmlns:xlink="http://www.w3.org/1999/xlink" version="1.1" x="0px" y="0px" viewBox="0 0 100 100" enable-background="new 0 0 100 100" xml:space="preserve"><g><path d="M68.557,5c-7.212,0-13.808,2.913-18.529,7.651C45.256,7.917,38.659,5,31.443,5C16.886,5.002,5.002,16.814,5,31.444   c-0.001,6.412,2.312,12.263,6.122,16.861l0.033,0.039c0.531,0.597,1.137,1.268,1.763,1.899l0.033,0.054l7.324,7.785   c-1.411,1.669-2.293,3.87-2.291,6.341v11.292c-0.003,2.816,1.143,5.283,2.912,7.009c1.768,1.729,4.16,2.75,6.685,2.751   c0.29,0,0.583-0.03,0.875-0.057l2.633,4.445c1.969,3.322,5.213,5.135,8.377,5.138c1.399,0.001,2.787-0.361,3.998-1.112   c1.212-0.748,2.231-1.885,2.904-3.338l3.55-7.579l3.516,7.577c0.673,1.455,1.693,2.592,2.905,3.34   c1.211,0.751,2.599,1.113,3.998,1.112c3.164-0.003,6.409-1.816,8.377-5.138l-0.001,0.002l2.655-4.459   c0.345,0.039,0.689,0.068,1.031,0.068c2.523-0.002,4.917-1.022,6.69-2.749c1.774-1.724,2.928-4.192,2.925-7.011V64.422   c0.003-2.466-0.88-4.663-2.289-6.329l7.281-7.739l0.059-0.095c0.63-0.631,1.239-1.245,1.811-1.956l0.001,0.001l0.008-0.011   l0.007-0.009l-0.001,0C92.694,43.69,95.001,37.847,95,31.444C94.998,16.814,83.114,5.002,68.557,5z M7.903,31.444   c0.001-6.515,2.643-12.39,6.911-16.652c4.27-4.26,10.148-6.887,16.629-6.888c6.929,0,13.211,3.014,17.508,7.823l0.031,0.023   l0.092,0.099c0.097,0.085,0.203,0.149,0.314,0.204l0.062,0.028c0.152,0.067,0.312,0.108,0.474,0.12l0.064,0.002   c0.164,0.005,0.327-0.016,0.485-0.066l0.062-0.023c0.158-0.058,0.305-0.143,0.438-0.256l0.028-0.016l0.023-0.031l0.099-0.092l0,0   c4.224-4.799,10.503-7.816,17.433-7.815c6.481,0.001,12.358,2.628,16.629,6.888c4.268,4.263,6.911,10.138,6.911,16.652   c-0.001,5.709-2.046,10.89-5.455,15.009l-0.015,0.019c-0.477,0.597-1.049,1.174-1.732,1.855l-0.081,0.122l-7.278,7.736   c-1.515-0.97-3.29-1.522-5.136-1.523c-1.609-0.001-3.267,0.422-4.8,1.328l-9.615,5.644l-0.022,0.013   c-0.445,0.273-0.878,0.573-1.285,0.907c-1.78-1.656-4.158-2.682-6.768-2.681c-2.58-0.001-4.934,1.002-6.707,2.625   c-0.382-0.314-0.793-0.604-1.229-0.862l-9.577-5.646l-0.004-0.002c-1.541-0.904-3.202-1.327-4.813-1.326   c-1.84,0.001-3.607,0.549-5.116,1.512l-7.391-7.856l-0.039-0.059l0,0c-0.567-0.567-1.155-1.218-1.688-1.818   C9.946,42.323,7.905,37.147,7.903,31.444z M50.007,77.366l-0.104,0.002l-0.08-0.001c-1.932-0.025-3.669-0.823-4.949-2.123   c-1.296-1.322-2.099-3.142-2.1-5.169l0,0l0,0c0.001-2.028,0.804-3.847,2.1-5.169c1.299-1.32,3.07-2.127,5.037-2.128   c1.967,0.001,3.738,0.807,5.037,2.128c1.296,1.322,2.099,3.142,2.1,5.17c-0.001,2.027-0.804,3.847-2.1,5.17   C53.671,76.542,51.936,77.34,50.007,77.366z M22.927,80.647c-1.239-1.217-2.036-2.904-2.039-4.934V64.422   c0.003-2.03,0.801-3.717,2.039-4.934l0.255-0.227l0.124-0.077l0.064-0.09c1.183-0.971,2.676-1.53,4.212-1.529   c1.109,0.001,2.243,0.283,3.345,0.928l9.573,5.644c0.305,0.179,0.596,0.386,0.863,0.606c-0.703,1.162-1.181,2.475-1.379,3.88H36.45   c-0.802,0-1.452,0.65-1.452,1.452c0,0.802,0.65,1.452,1.452,1.452h3.534c0.198,1.402,0.674,2.712,1.374,3.872   c-0.266,0.218-0.554,0.424-0.858,0.602l-9.573,5.644c-0.608,0.355-1.226,0.591-1.844,0.739c-0.122,0.01-0.244,0.031-0.362,0.073   c-0.381,0.069-0.761,0.115-1.139,0.115C25.848,82.572,24.167,81.861,22.927,80.647z M43.739,89.321l-0.002,0.004   c-0.456,0.976-1.077,1.644-1.8,2.094c-0.724,0.448-1.564,0.676-2.469,0.677c-2.042,0.003-4.389-1.199-5.88-3.715l-2.207-3.726   c0.342-0.151,0.682-0.313,1.014-0.507l0.004-0.002l9.577-5.646c0.434-0.256,0.842-0.545,1.222-0.857   c1.334,1.223,2.997,2.092,4.841,2.447l-0.076,0.214L43.739,89.321z M66.22,88.379l-0.001,0.002   c-1.491,2.515-3.838,3.718-5.88,3.715c-0.905-0.001-1.746-0.229-2.469-0.677c-0.723-0.45-1.344-1.118-1.8-2.094l-4.197-9.046   l-0.018-0.038l-0.059-0.153c1.868-0.361,3.55-1.251,4.891-2.502c0.405,0.331,0.835,0.63,1.278,0.901l0.022,0.013l9.615,5.645   c0.287,0.169,0.582,0.305,0.876,0.441L66.22,88.379z M79.112,75.714c-0.003,2.027-0.805,3.713-2.048,4.932   c-1.245,1.215-2.933,1.927-4.663,1.925c-0.406,0-0.816-0.053-1.225-0.133c-0.152-0.06-0.309-0.09-0.467-0.097   c-0.549-0.151-1.095-0.378-1.633-0.695l-0.002-0.001l-9.598-5.635c-0.356-0.217-0.683-0.447-0.969-0.683   c0.677-1.142,1.138-2.427,1.332-3.801h3.534c0.802,0,1.452-0.65,1.452-1.452c0-0.802-0.65-1.452-1.452-1.452h-3.534   c-0.194-1.377-0.657-2.665-1.337-3.809c0.287-0.237,0.616-0.469,0.973-0.687l9.599-5.635l0.003-0.002   c1.09-0.642,2.218-0.924,3.325-0.925c1.467-0.001,2.901,0.514,4.063,1.41c0.06,0.091,0.106,0.189,0.189,0.267   c0.128,0.12,0.276,0.201,0.429,0.266c1.233,1.217,2.028,2.896,2.031,4.913V75.714z"></path><path d="M16.685,32.973c0.802,0,1.452-0.65,1.452-1.452h0c0.001-3.804,1.542-7.23,4.034-9.72c2.495-2.488,5.922-4.02,9.707-4.021   c0.802,0,1.451-0.65,1.451-1.451c0-0.802-0.65-1.451-1.451-1.451c-9.164,0.001-16.642,7.435-16.644,16.644   C15.234,32.323,15.884,32.973,16.685,32.973z"></path><polygon points="46.37,90.549 46.37,90.55 46.368,90.553  "></polygon><polygon points="67.603,84.148 67.601,84.146 67.601,84.146  "></polygon><polygon points="67.6,55.99 67.6,55.99 67.603,55.988  "></polygon></g></svg>