<svg xmlns="http://www.w3.org/2000/svg" xmlns:xlink="http://www.w3.org/1999/xlink" version="1.1" x="0px" y="0px" viewBox="0 0 100 100" enable-background="new 0 0 100 100" xml:space="preserve"><g><g><g><g><path d="M59.773,89.039H33.466c-0.808,0-1.461-0.653-1.461-1.462v-5.846c0-0.809,0.653-1.462,1.461-1.462h26.308      c0.809,0,1.462,0.653,1.462,1.462v5.846C61.235,88.386,60.582,89.039,59.773,89.039z M34.927,86.116h23.385v-2.924H34.927      V86.116z"></path></g></g></g><g><g><g><g><path d="M55.109,75.241H38.09c-0.808,0-1.461-0.653-1.461-1.462V48.207c-1.656-1.305-6.043-5.26-8.39-12.14       c-0.223-0.653,0.043-1.375,0.64-1.727l5.846-3.471c0.685-0.412,1.582-0.184,1.996,0.501c0.936,1.546,4.208,5.962,6.879,5.962       l0.962-0.001c3.594,0,12.01,0,12.01,10.232v26.217C56.571,74.588,55.918,75.241,55.109,75.241z M39.552,72.318h14.097V47.563       c0-6.751-4.297-7.309-9.087-7.309L43.6,40.255c-3.745,0-7.082-4.032-8.581-6.162l-3.603,2.14       c2.667,6.732,7.437,9.991,7.488,10.024c0.405,0.271,0.648,0.727,0.648,1.214V72.318z"></path></g></g></g><g><g><g><path d="M47.647,59.261c-0.502,0-0.99-0.118-1.441-0.356c-0.836-0.441-1.413-1.182-1.673-2.142       c-0.919-3.418,2.595-9.289,3.309-10.432c0.431-0.684,1.336-0.888,2.012-0.464c0.685,0.427,0.894,1.329,0.465,2.012       c-1.493,2.397-3.4,6.5-2.963,8.125c0.063,0.235,0.151,0.281,0.214,0.313c2.001-0.609,4.787-5.252,6.209-8.358       c0.34-0.738,1.207-1.053,1.938-0.721c0.733,0.335,1.056,1.203,0.722,1.937c-0.659,1.44-4.127,8.688-7.667,9.893       C48.393,59.196,48.016,59.261,47.647,59.261z"></path></g></g></g><g><g><g><path d="M29.78,36.184c-0.514,0-1.013-0.272-1.279-0.755c-0.108-0.194-2.638-4.833-3.023-10.335       c-0.054-0.805,0.551-1.503,1.356-1.56c0.839-0.04,1.504,0.553,1.562,1.357c0.34,4.864,2.641,9.083,2.663,9.125       c0.391,0.707,0.134,1.596-0.574,1.985C30.263,36.125,30.02,36.184,29.78,36.184z"></path></g></g></g><g><g><g><path d="M34.793,33.39c-0.459,0-0.911-0.216-1.196-0.62c-0.108-0.157-2.706-3.891-3.103-8.341       c-0.071-0.805,0.522-1.514,1.327-1.585c0.745-0.069,1.51,0.521,1.584,1.326c0.326,3.651,2.561,6.887,2.583,6.92       c0.462,0.661,0.303,1.571-0.357,2.034C35.375,33.302,35.084,33.39,34.793,33.39z"></path></g></g></g><g><g><g><path d="M29.624,27.653c-1.95,0-3.537-1.586-3.537-3.536v-3.799c0-1.95,1.587-3.536,3.537-3.536       s3.534,1.586,3.534,3.536v3.799C33.157,26.067,31.573,27.653,29.624,27.653z M29.624,19.706c-0.34,0-0.614,0.274-0.614,0.612       v3.799c0,0.674,1.225,0.679,1.225,0v-3.799C30.234,19.98,29.96,19.706,29.624,19.706z"></path></g></g></g><g><g><g><path d="M34.008,19.706h-8.952c-0.808,0-1.462-0.654-1.462-1.462c0-0.808,0.654-1.461,1.462-1.461h8.952       c0.808,0,1.461,0.654,1.461,1.461C35.47,19.052,34.816,19.706,34.008,19.706z"></path></g></g></g><g><g><g><path d="M29.621,18.698c-0.254,0-0.508-0.066-0.734-0.198c-2.366-1.375-3.833-3.91-3.833-6.613       c0-2.704,1.467-5.238,3.833-6.613c0.451-0.266,1.017-0.266,1.467,0c2.367,1.375,3.834,3.909,3.834,6.613       c0,2.703-1.467,5.238-3.834,6.613C30.129,18.632,29.875,18.698,29.621,18.698z M29.621,8.322       c-1.042,0.893-1.644,2.173-1.644,3.565c0,1.392,0.602,2.672,1.644,3.565c1.042-0.894,1.644-2.174,1.644-3.565       C31.265,10.495,30.663,9.215,29.621,8.322z"></path></g></g></g><g><g><g><path d="M39.209,75.377c-0.477,0-0.962-0.058-1.459-0.176c-0.785-0.188-1.27-0.978-1.082-1.763       c0.186-0.782,0.974-1.269,1.762-1.08c4.262,1.033,8.435-7.062,9.563-9.973c0.288-0.756,1.142-1.124,1.89-0.835       c0.754,0.291,1.127,1.137,0.834,1.891C50.517,63.961,46.012,75.377,39.209,75.377z"></path></g></g></g><g><g><g><path d="M45.838,37.049c-3.075,0-5.484-3.159-5.484-7.192c0-4.032,2.409-7.191,5.484-7.191       c3.074,0,5.48,3.159,5.48,7.191C51.318,33.891,48.912,37.049,45.838,37.049z M45.838,25.589c-1.21,0-2.561,1.752-2.561,4.268       c0,2.516,1.35,4.269,2.561,4.269c1.21,0,2.558-1.753,2.558-4.269C48.396,27.342,47.048,25.589,45.838,25.589z"></path></g></g></g><g><g><g><path d="M37.97,29.614c-0.1,0-0.2-0.01-0.302-0.031c-0.788-0.164-1.296-0.939-1.131-1.729       c1.125-5.39,4.95-9.153,9.301-9.153c4.296,0,8.107,3.701,9.266,9c0.174,0.788-0.325,1.567-1.113,1.74       c-0.805,0.174-1.572-0.327-1.741-1.115c-0.864-3.946-3.5-6.703-6.411-6.703c-2.952,0-5.601,2.808-6.44,6.827       C39.255,29.14,38.647,29.614,37.97,29.614z"></path></g></g></g><g><g><g><path d="M39.061,26.454c-0.183,0-0.369-0.034-0.548-0.107l-4.268-1.724c-0.748-0.301-1.11-1.153-0.808-1.903       c0.303-0.749,1.153-1.115,1.904-0.806l4.268,1.724c0.748,0.301,1.11,1.153,0.808,1.902       C40.186,26.109,39.638,26.454,39.061,26.454z"></path></g></g></g><g><g><g><path d="M52.949,26.454c-0.577,0-1.125-0.345-1.356-0.914c-0.303-0.749,0.06-1.601,0.808-1.902l4.268-1.724       c0.742-0.309,1.599,0.057,1.904,0.806c0.303,0.75-0.061,1.602-0.809,1.903l-4.268,1.724       C53.316,26.42,53.131,26.454,52.949,26.454z"></path></g></g></g><g><g><g><path d="M45.838,21.624c-0.808,0-1.462-0.654-1.462-1.461v-4.659c0-0.808,0.654-1.462,1.462-1.462       c0.808,0,1.461,0.654,1.461,1.462v4.659C47.299,20.97,46.646,21.624,45.838,21.624z"></path></g></g></g><g><g><g><path d="M41.815,23.042c-0.419,0-0.839-0.181-1.127-0.531l-3.094-3.747c-0.514-0.622-0.426-1.543,0.197-2.058       c0.62-0.511,1.544-0.425,2.058,0.197l3.095,3.747c0.514,0.622,0.425,1.543-0.197,2.058       C42.475,22.932,42.144,23.042,41.815,23.042z"></path></g></g></g><g><g><g><path d="M49.857,23.042c-0.328,0-0.659-0.11-0.931-0.334c-0.622-0.515-0.71-1.436-0.197-2.058l3.095-3.747       c0.514-0.622,1.438-0.708,2.058-0.197c0.622,0.515,0.711,1.436,0.197,2.058l-3.095,3.747       C50.696,22.86,50.277,23.042,49.857,23.042z"></path></g></g></g></g><g><g><g><path d="M52.832,83.192H39.555c-0.808,0-1.461-0.653-1.461-1.461v-7.819c0-0.808,0.654-1.461,1.461-1.461h13.277      c0.808,0,1.461,0.653,1.461,1.461v7.819C54.293,82.539,53.64,83.192,52.832,83.192z M41.016,80.27H51.37v-4.896H41.016V80.27z"></path></g></g></g><g><g><g><path d="M65.115,94.924h-36.99c-0.808,0-1.462-0.653-1.462-1.462v-5.885c0-0.808,0.654-1.461,1.462-1.461h36.99      c0.808,0,1.461,0.653,1.461,1.461v5.885C66.576,94.271,65.923,94.924,65.115,94.924z M29.586,92.001h34.067v-2.962H29.586      V92.001z"></path></g></g></g></g><g><g><g><path d="M60.842,63.698c-0.809,0-1.462-0.653-1.462-1.461V49.448c0-2.726-0.331-5.117-0.985-7.105     c-0.254-0.766,0.164-1.593,0.932-1.845c0.762-0.255,1.59,0.166,1.844,0.932c0.754,2.284,1.133,4.981,1.133,8.019v12.789     C62.303,63.045,61.649,63.698,60.842,63.698z"></path></g></g></g><g><g><g><path d="M57.992,39.757c-0.447,0-0.891-0.206-1.176-0.594c-0.725-0.983-1.336-1.342-1.342-1.345     c-0.69-0.396-0.947-1.28-0.564-1.978c0.379-0.695,1.227-0.974,1.946-0.598c0.188,0.1,1.199,0.675,2.313,2.185     c0.479,0.649,0.339,1.564-0.309,2.044C58.598,39.664,58.295,39.757,57.992,39.757z"></path></g></g></g></svg>
