<svg fill="#EBE6DD" xmlns="http://www.w3.org/2000/svg" xmlns:xlink="http://www.w3.org/1999/xlink" version="1.1" x="0px" y="0px" viewBox="0 0 100 100" style="enable-background:new 0 0 100 100;" xml:space="preserve"><g><path d="M79.5,31.1l-11-3.5c-2.7-0.9-5.5-0.9-8.2-0.1c0.4,0.9,0.8,1.7,1.2,2.7c0.9-0.2,1.8-0.4,2.7-0.4c1.1,0,2.3,0.2,3.4,0.5   l11,3.5c5.8,1.8,9,8.1,7.2,13.8l-8.6,26.9c-1.8,5.8-8.1,9-13.8,7.2l-11-3.5c-2.8-0.9-5.1-2.8-6.5-5.4c-1.1-2.2-1.5-4.6-1.1-7   c-1,0.3-2,0.6-3,0.9c-0.2,2.6,0.3,5.1,1.5,7.5c1.7,3.3,4.6,5.7,8.1,6.9l11,3.5c1.4,0.4,2.8,0.7,4.2,0.7c5.9,0,11.4-3.8,13.3-9.7   l8.6-26.9C90.8,41.2,86.8,33.4,79.5,31.1z"></path><path d="M71.4,73.4c-0.1,0.3-0.3,0.5-0.6,0.7c-0.3,0.1-0.6,0.2-0.9,0.1l-18.5-5.9c-0.3-0.1-0.5-0.3-0.7-0.6   c-0.1-0.3-0.2-0.6-0.1-0.9l0.5-1.7l-2.8-0.8L48,66c-0.3,1-0.2,2.1,0.3,3.1s1.3,1.7,2.4,2L69,76.9c0.4,0.1,0.8,0.2,1.2,0.2   c0.6,0,1.3-0.2,1.9-0.5c1-0.5,1.7-1.3,2-2.4L84.1,43c0.3-1,0.2-2.1-0.3-3.1c-0.5-1-1.3-1.7-2.4-2L63,32c-0.3-0.1-0.6-0.1-0.9-0.2   c0.3,1,0.6,2.1,0.8,3.2l17.7,5.6c0.3,0.1,0.5,0.3,0.7,0.6c0.1,0.3,0.2,0.6,0.1,0.9L71.4,73.4z"></path><path d="M35.9,65c4.3,0,8.5-1.1,12.2-3.2l11,3.1c0.1,0,0.3,0.1,0.4,0.1c0.4,0,0.7-0.1,1-0.4c0.4-0.4,0.5-0.9,0.4-1.4l-3.1-11   c2.1-3.7,3.2-7.9,3.2-12.2c0-13.8-11.2-25.1-25.1-25.1c-13.8,0-25.1,11.2-25.1,25.1C10.8,53.7,22.1,65,35.9,65z M35.9,17.7   c12.2,0,22.2,10,22.2,22.2c0,4-1.1,7.9-3.1,11.3c-0.2,0.3-0.3,0.7-0.1,1.1l2.6,9.1l-9.1-2.6c-0.4-0.1-0.8-0.1-1.1,0.1   c-3.4,2-7.3,3.1-11.3,3.1c-12.2,0-22.2-10-22.2-22.2C13.7,27.7,23.6,17.7,35.9,17.7z"></path><path d="M35.4,52.5c0.2,0.1,0.3,0.1,0.5,0.1c0.2,0,0.3,0,0.5-0.1c0.5-0.2,13-5,13-14.9c0-4.2-3.3-7.6-7.5-7.6c-2.6,0-4.7,1-6,2.7   c-1.3-1.7-3.5-2.7-6-2.7c-4.1,0-7.5,3.4-7.5,7.6C22.4,47.6,34.9,52.3,35.4,52.5z M29.9,32.9c2.3,0,4.6,1.2,4.6,4   c0,0.8,0.6,1.4,1.4,1.4s1.4-0.6,1.4-1.4c0-2.8,2.3-4,4.6-4c2.5,0,4.6,2.1,4.6,4.8c0,6.9-8.4,11-10.6,12c-2.2-0.9-10.6-5-10.6-12   C25.3,35.1,27.3,32.9,29.9,32.9z"></path></g></svg>